<?xml version="1.0" encoding="utf-8"?><svg xmlns="http://www.w3.org/2000/svg" xmlns:xlink="http://www.w3.org/1999/xlink"><symbol viewBox="0 0 50 50" id="account_icon"><circle cx="25.851" cy="12.744" r="12.744"/><path d="M41.455 24.292s-1.013-.688-3.849-.851c0 0-1.378.405-2.107 1.094-.729.689-4.375 3.322-9.521 3.404v.019c-5.121-.096-8.748-2.716-9.476-3.402-.729-.688-2.106-1.094-2.106-1.094-2.837.161-3.85.851-3.85.851-4.78 2.553-7.131 9.197-7.009 17.382.121 8.185 8.144 8.225 8.144 8.225l14.341.08v-.021l14.299-.081s8.021-.04 8.143-8.225c.122-8.184-2.229-14.828-7.009-17.381z"/></symbol><symbol viewBox="0 0 50 50" id="basket_icon"><path d="M50 23.167a2.5 2.5 0 0 1-2.5 2.5h-45a2.5 2.5 0 1 1 0-5h45a2.5 2.5 0 0 1 2.5 2.5z"/><path d="M2.446 25.609c.204.042.415.065.632.065h.442l2.839 16.041s.291 2.712 3.024 2.712h15.709v.057h15.591c2.684 0 2.969-2.712 2.969-2.712l2.797-16.098h.443c.217 0 .428-.023.631-.065H2.446zm9.306 13.439a1.499 1.499 0 0 1-1.588-1.401l-.649-10.433a1.498 1.498 0 0 1 1.105-1.539h.777a1.496 1.496 0 0 1 1.105 1.354l.65 10.432a1.495 1.495 0 0 1-1.4 1.587zm10.063-1.485a1.497 1.497 0 1 1-2.994 0V27.111a1.5 1.5 0 0 1 1.073-1.437h.849c.62.184 1.072.757 1.072 1.437v10.452zm9.324-.056a1.497 1.497 0 1 1-2.994 0V27.055c0-.621.377-1.152.916-1.38h1.162a1.5 1.5 0 0 1 .916 1.38v10.452zm8.656.196a1.496 1.496 0 1 1-2.988-.187l.648-10.433a1.497 1.497 0 0 1 2.988.187l-.648 10.433z"/><path d="M40.843 5.511c.961.934 1.2 2.25.532 2.937L24.859 25.439c-.668.687-1.99.486-2.952-.449s-1.2-2.25-.533-2.937L37.892 5.061c.667-.686 1.989-.485 2.951.45z"/></symbol><symbol viewBox="0 0 50 50" id="card_icon"><path d="M50 15.77v-4.916c0-1.417-1.297-2.565-2.895-2.565H2.895C1.295 8.289 0 9.437 0 10.854v4.916h50zM0 24.191v14.954c0 1.418 1.295 2.566 2.895 2.566h44.211c1.598 0 2.895-1.148 2.895-2.566V24.191H0zm20.994 14.362H4.062v-2.807h16.932v2.807z"/></symbol><symbol viewBox="0 0 50 50" id="heart_icon"><defs><path id="da" d="M338.902-1872.98c-4.859-4.456-12.739-4.456-17.601 0l-3.301 3.023-3.3-3.023c-4.858-4.456-12.738-4.456-17.6 0-5.468 5.01-5.468 13.136 0 18.146l20.899 19.156 20.901-19.156c5.467-5.011 5.467-13.137.002-18.146z"/></defs><clipPath id="db"><use xlink:href="#da" overflow="visible"/></clipPath><g clip-path="url(#db)"><defs><path id="dc" d="M-1756.708-3561.922h3564.71v7172.707h-3564.71z"/></defs><clipPath id="dd"><use xlink:href="#dc" overflow="visible"/></clipPath><path clip-path="url(#dd)" d="M280.27-1889.054h75.464v66.107H280.27z"/></g><defs><path id="de" d="M45.901 8.02c-4.859-4.456-12.739-4.456-17.601 0L25 11.043 21.7 8.02c-4.858-4.456-12.738-4.456-17.6 0-5.468 5.01-5.468 13.136 0 18.146L25 45.322l20.901-19.156c5.465-5.011 5.465-13.137 0-18.146z"/></defs><clipPath id="df"><use xlink:href="#de" overflow="visible"/></clipPath><g clip-path="url(#df)"><defs><path id="dg" d="M-2049.708-1680.922h3564.71v7172.707h-3564.71z"/></defs><clipPath id="dh"><use xlink:href="#dg" overflow="visible"/></clipPath><path clip-path="url(#dh)" d="M-12.731-8.054h75.464v66.107h-75.464z"/></g></symbol><symbol viewBox="0 0 50 50" id="info_icon"><path d="M25 0C11.192 0 0 11.193 0 25c0 13.808 11.192 25 25 25 13.807 0 25-11.192 25-25C50 11.193 38.807 0 25 0zm-4.114 11.494c0-.76.616-1.376 1.376-1.376h5.545c.761 0 1.376.616 1.376 1.376v4.027c0 .76-.615 1.376-1.376 1.376h-5.545c-.76 0-1.376-.616-1.376-1.376v-4.027zm10.896 27.027a1.36 1.36 0 0 1-1.361 1.36H19.578a1.36 1.36 0 0 1-1.361-1.36v-2.677a1.36 1.36 0 0 1 1.361-1.361h1.611v-8.166h-1.565a1.36 1.36 0 0 1-1.361-1.361V22.37a1.36 1.36 0 0 1 1.361-1.361h8.122c.212 0 .411.05.59.137.469.22.793.685.793 1.225v12.113h1.293a1.36 1.36 0 0 1 1.361 1.36v2.677h-.001z"/></symbol><symbol viewBox="0 0 50 50" id="oos_icon"><path d="M25 0C11.192 0 0 11.193 0 25s11.192 25 25 25c13.807 0 25-11.193 25-25S38.807 0 25 0zm14.009 39.008a2.968 2.968 0 0 1-4.197 0L25 29.197l-9.811 9.811a2.97 2.97 0 0 1-4.197 0 2.97 2.97 0 0 1 0-4.197L20.804 25l-9.812-9.811a2.968 2.968 0 0 1 4.196-4.197L25 20.802l9.811-9.811a2.969 2.969 0 0 1 4.197 4.197L29.197 25l9.812 9.811a2.97 2.97 0 0 1 0 4.197z"/></symbol><symbol viewBox="0 0 50 50" id="paypal_icon"><path d="M41.045 10.015c.069.829.055 1.68-.052 2.544l-.135 1.09c-.841 6.815-7.085 12.359-13.92 12.359l-8.021.003c-.704.028-1.13.375-1.265 1.032l-1.709 14.228c-.098.82-.885 1.463-1.791 1.463h-2.911l-.769 6.487c-.049.431.323.779.834.779h8.971c.511 0 .967-.348 1.019-.778l1.712-14.257c.091-.472.472-1.635 2.02-1.688h4.167v-.004h3.869c6.465 0 12.352-5.227 13.147-11.676l.134-1.09c.568-4.609-1.63-8.594-5.3-10.492z"/><path d="M5.183 41.178h8.97c.132 0 .226-.071.247-.105l1.714-14.271.005-.027c.209-1.082 1.042-2.259 2.758-2.318h.026l8.036-.003c6.075 0 11.626-4.932 12.374-10.994l.135-1.089c.357-2.897-.437-5.614-2.238-7.651-1.796-2.032-4.39-3.152-7.299-3.152l-5.917.001-.076.001h-4.722l-.059-.009c-.018-.002-.032-.004-.045-.004h-9.028c-.132 0-.229.071-.251.106L5.134 41.174a.311.311 0 0 0 .049.004z"/><path d="M15.943 41.271l1.709-14.228c.135-.657.561-1.004 1.265-1.032l8.021-.003c6.835 0 13.079-5.544 13.92-12.359l.135-1.09a12.42 12.42 0 0 0 .052-2.544c-.2-2.378-1.112-4.566-2.669-6.328C36.279 1.316 33.272.01 29.91.01h-5.875c-.031 0-.064 0-.096.002l-4.633.001A1.719 1.719 0 0 0 19.092 0h-9.028c-.91 0-1.699.644-1.795 1.465L3.576 41.087c-.048.407.076.802.352 1.111.303.341.76.536 1.255.536h8.97c.906 0 1.693-.642 1.79-1.463zm-5.88-39.714h9.028c.013 0 .027.001.045.004l.059.009h4.722l.076-.001 5.917-.001c2.909 0 5.503 1.12 7.299 3.152 1.802 2.037 2.596 4.753 2.238 7.651l-.135 1.089c-.748 6.062-6.299 10.994-12.374 10.994l-8.036.003h-.026c-1.716.059-2.549 1.236-2.758 2.318l-.005.027-1.714 14.271c-.021.034-.115.105-.247.105h-8.97a.323.323 0 0 1-.049-.004L9.812 1.663c.023-.035.12-.106.251-.106z"/></symbol><symbol viewBox="0 0 50 50" id="phone_icon"><path d="M48.603 44.227l.601-1.118c1.42-2.646.891-5.694-1.182-6.806l-7.219-3.866c-1.691-.907-4.024.151-5.212 2.364l-1.462 2.725-.001-.002-.01.021-.208.391c-.365.607-1.176 1.623-2.326 1.18-1.738-.329-6.351-3.505-11.32-7.889-5.276-4.654-9.15-9.079-9.304-10.53-.239-.864.402-1.6.896-2.018l2.834-2.013c2.047-1.454 2.806-3.901 1.694-5.466l-4.226-5.95a.734.734 0 0 0-.04-.053l-.563-.794c-1.362-1.917-4.452-2.062-6.9-.323l-1.036.735A6.627 6.627 0 0 0 1.796 6.75l-.017-.015C.296 9.271-.286 12.325.132 15.556c.268 2.08.955 4.153 1.992 6.102.256.502 1.27 2.076 1.415 2.278 2.376 3.354 6.674 7.956 11.957 12.618 7.058 6.225 13.79 10.719 17.112 11.621 1.841.62 3.732.953 5.588.959 3.146.01 6.012-.886 8.305-2.558.824-.547 1.564-1.347 2.102-2.349z"/></symbol><symbol viewBox="0 0 50 50" id="pin_icon"><path d="M42.496 16.497C42.496 7.385 35.11 0 26 0S9.504 7.385 9.504 16.497c0 2.062.38 4.037 1.071 5.857 0 0 9.996 21.658 11.465 24.824 1.288 2.771 3.299 2.826 3.777 2.797.059.006.119.01.182.01.023 0 .046 0 .068-.002v.002s2.412.377 3.882-2.787c1.469-3.166 11.492-24.833 11.492-24.833l-.023.008a16.465 16.465 0 0 0 1.078-5.876zm-16.481 8.589a8.4 8.4 0 0 1-8.401-8.4 8.4 8.4 0 0 1 8.401-8.401 8.4 8.4 0 1 1 0 16.801z"/></symbol><symbol viewBox="0 0 50 50" id="print_icon"><path d="M8.348 6.102h33.393v16.956H8.348z"/><path d="M41.74 23.058v-.435H8.782V6.536h32.524v16.522h.434v-.435.435h.435V5.666H7.913v17.826h34.262v-.434z"/><path d="M50 36.217a2.897 2.897 0 0 1-2.898 2.898H2.898A2.897 2.897 0 0 1 0 36.217V21.145a2.897 2.897 0 0 1 2.898-2.898h44.203a2.897 2.897 0 0 1 2.898 2.898v15.072z"/><path d="M8.348 34.42h33.393v9.479H8.348z"/><path d="M41.74 43.898v-.434H8.782v-8.61h32.524v9.044h.434v-.434.434h.435v-9.913H7.913v10.349h34.262v-.436z"/><circle cx="5.739" cy="23.116" r="1.826"/><circle cx="11.17" cy="23.116" r="1.826"/></symbol><symbol viewBox="0 0 50 50" id="search_icon"><path d="M49.292 44.218l-10.928-11.28a20.909 20.909 0 0 0 3.713-11.93C42.077 9.406 32.671 0 21.068 0S.06 9.406.06 21.008c0 11.604 9.405 21.009 21.008 21.009 4.537 0 8.738-1.438 12.171-3.883l10.812 11.162c1.078 1.113 3.127.881 4.574-.521 1.447-1.403 1.746-3.442.667-4.557zm-28.246-9.839c-7.496 0-13.572-6.076-13.572-13.572S13.55 7.232 21.046 7.232c7.497 0 13.574 6.078 13.574 13.574s-6.077 13.573-13.574 13.573z"/></symbol><symbol viewBox="0 0 50 50" id="speech_icon"><path d="M25.096 2.126C11.343 2.126.194 10.478.194 20.781c0 6.109 3.92 11.533 9.978 14.935A22.356 22.356 0 0 1 0 44.348a17.882 17.882 0 0 0 5.092 1.395c6.354.767 12.331-1.898 16.076-6.535 1.28.151 2.592.23 3.929.23C38.85 39.438 50 31.085 50 20.782S38.85 2.126 25.096 2.126z"/></symbol><symbol viewBox="0 0 50 50" id="tick_icon"><path d="M25 0C11.193 0 0 11.193 0 25c0 13.809 11.193 25 25 25s25-11.191 25-25C50 11.193 38.807 0 25 0zm15.357 16.185l-16.77 22.319a2.739 2.739 0 0 1-2.146 1.098 2.695 2.695 0 0 1-2.273-.811L9.85 29.117a2.712 2.712 0 1 1 3.904-3.762l7.209 7.484 14.996-19.96a2.75 2.75 0 1 1 4.398 3.306z"/></symbol></svg>