<?xml version="1.0" encoding="utf-8"?>
<!-- Generator: Adobe Illustrator 16.0.0, SVG Export Plug-In . SVG Version: 6.00 Build 0)  -->
<!DOCTYPE svg PUBLIC "-//W3C//DTD SVG 1.1//EN" "http://www.w3.org/Graphics/SVG/1.1/DTD/svg11.dtd">
<svg version="1.1" id="Layer_1" xmlns="http://www.w3.org/2000/svg" xmlns:xlink="http://www.w3.org/1999/xlink" x="0px" y="0px"
	 width="50px" height="50px" viewBox="0 0 50 50" enable-background="new 0 0 50 50" xml:space="preserve">
<path fill="#006341" d="M50,23.167c0,1.381-1.119,2.5-2.5,2.5h-45c-1.381,0-2.5-1.119-2.5-2.5l0,0c0-1.381,1.119-2.5,2.5-2.5h45
	C48.881,20.667,50,21.786,50,23.167L50,23.167z"/>
<path fill="#006341" d="M2.446,25.609c0.204,0.042,0.415,0.065,0.632,0.065H3.52l2.839,16.041c0,0,0.291,2.712,3.024,2.712
	c2.551,0,14.168,0,15.709,0v0.057c0,0,12.906,0,15.591,0c2.684,0,2.969-2.712,2.969-2.712l2.797-16.098h0.443
	c0.217,0,0.428-0.023,0.631-0.065H2.446z M11.752,39.048c-0.825,0.051-1.536-0.576-1.588-1.401L9.515,27.214
	c-0.045-0.723,0.431-1.358,1.105-1.539h0.777c0.604,0.162,1.064,0.694,1.105,1.354l0.65,10.432
	C13.205,38.285,12.578,38.996,11.752,39.048z M21.815,37.563c0,0.827-0.67,1.497-1.497,1.497s-1.497-0.67-1.497-1.497V27.111
	c0-0.68,0.453-1.253,1.073-1.437h0.849c0.62,0.184,1.072,0.757,1.072,1.437V37.563z M31.139,37.507c0,0.827-0.67,1.497-1.498,1.497
	c-0.826,0-1.496-0.67-1.496-1.497V27.055c0-0.621,0.377-1.152,0.916-1.38h1.162c0.537,0.228,0.916,0.759,0.916,1.38V37.507z
	 M39.795,37.703c-0.053,0.825-0.762,1.452-1.588,1.401c-0.826-0.052-1.453-0.763-1.4-1.588l0.648-10.433
	c0.053-0.825,0.762-1.452,1.588-1.4c0.826,0.051,1.453,0.762,1.4,1.587L39.795,37.703z"/>
<path fill="#006341" d="M40.843,5.511c0.961,0.934,1.2,2.25,0.532,2.937L24.859,25.439c-0.668,0.687-1.99,0.486-2.952-0.449l0,0
	c-0.962-0.935-1.2-2.25-0.533-2.937L37.892,5.061C38.559,4.375,39.881,4.576,40.843,5.511L40.843,5.511z"/>
</svg>
