<?xml version="1.0" encoding="utf-8"?>
<!-- Generator: Adobe Illustrator 15.0.0, SVG Export Plug-In . SVG Version: 6.00 Build 0)  -->
<!DOCTYPE svg PUBLIC "-//W3C//DTD SVG 1.1//EN" "http://www.w3.org/Graphics/SVG/1.1/DTD/svg11.dtd">
<svg version="1.1" id="Layer_1" xmlns="http://www.w3.org/2000/svg" xmlns:xlink="http://www.w3.org/1999/xlink" x="0px" y="0px"
	 width="19px" height="19px" viewBox="40.5 40.5 19 19" enable-background="new 40.5 40.5 19 19" xml:space="preserve">
<title></title>
<script  type="text/javascript">var metadata = {
	&quot;Designer&quot;: &quot;Anas Ramadan&quot;,
	&quot;Organization&quot;: &quot;RichStyle.org&quot;,
	&quot;Year&quot;: &quot;2012&quot;,
	&quot;Country&quot;: &quot;Syria&quot;,
	&quot;License&quot;: &quot;CC-BY-3.0&quot;
   }
	</script>
<path fill="#FFFFFF" d="M43.483,43.08c-3.814,3.601-3.987,9.613-0.386,13.427c0.063,0.067,0.128,0.134,0.193,0.198
	c3.709,3.71,9.724,3.71,13.433,0c3.71-3.709,3.71-9.723,0-13.433C53.089,39.636,47.221,39.55,43.483,43.08z M45.305,47.168
	l1.881-1.88l2.821,2.821l2.821-2.821l1.881,1.88l-2.821,2.822l2.821,2.82l-1.881,1.881l-2.821-2.82l-2.821,2.82l-1.881-1.881
	l2.821-2.82L45.305,47.168z"/>
</svg>
