<?xml version="1.0" encoding="UTF-8" standalone="no"?>
<!-- Generator: Adobe Illustrator 16.0.0, SVG Export Plug-In . SVG Version: 6.00 Build 0)  -->

<svg
   xmlns:dc="http://purl.org/dc/elements/1.1/"
   xmlns:cc="http://creativecommons.org/ns#"
   xmlns:rdf="http://www.w3.org/1999/02/22-rdf-syntax-ns#"
   xmlns:svg="http://www.w3.org/2000/svg"
   xmlns="http://www.w3.org/2000/svg"
   xmlns:sodipodi="http://sodipodi.sourceforge.net/DTD/sodipodi-0.dtd"
   xmlns:inkscape="http://www.inkscape.org/namespaces/inkscape"
   version="1.1"
   id="Layer_1"
   x="0px"
   y="0px"
   width="540.121px"
   height="145.726px"
   viewBox="26.425 36.452 540.121 145.726"
   enable-background="new 26.425 36.452 540.121 145.726"
   xml:space="preserve"
   inkscape:version="0.48.4 r9939"
   sodipodi:docname="GNC.svg"><metadata
   id="metadata35"><rdf:RDF><cc:Work
       rdf:about=""><dc:format>image/svg+xml</dc:format><dc:type
         rdf:resource="http://purl.org/dc/dcmitype/StillImage" /><dc:title /></cc:Work></rdf:RDF></metadata><defs
   id="defs33" /><sodipodi:namedview
   pagecolor="#ffffff"
   bordercolor="#666666"
   borderopacity="1"
   objecttolerance="10"
   gridtolerance="10"
   guidetolerance="10"
   inkscape:pageopacity="0"
   inkscape:pageshadow="2"
   inkscape:window-width="1440"
   inkscape:window-height="838"
   id="namedview31"
   showgrid="false"
   inkscape:zoom="0.52951101"
   inkscape:cx="270.06049"
   inkscape:cy="72.862999"
   inkscape:window-x="-8"
   inkscape:window-y="-8"
   inkscape:window-maximized="1"
   inkscape:current-layer="Layer_1" />

<g
   id="g21"
   transform="translate(1.888535,18.88535)">
	<g
   id="g23">
		<path
   d="m 65.316,143.617 c -26.695,0 -38.892,-20.903 -38.892,-53.585 0,-33.028 14.708,-53.58 31.975,-53.58 h 140.692 v 19.98 H 85.176 c -4.131,0 -7.504,5.736 -7.504,12.812 l 0.03,38.777 c 0,7.075 3.357,12.812 7.488,12.812 h 57.064 c 4.129,0 7.49,-5.735 7.49,-12.812 v -7 h -38.629 v -19.98 h 88.003 l -0.028,62.575 h -49.555 v -6.748 c -1.576,4.069 -4.262,6.748 -7.321,6.748 H 65.316 z"
   id="path25"
   inkscape:connector-curvature="0" />
		<polygon
   points="271.154,36.452 329.701,116.68 329.687,36.452 379.062,36.452 379.062,144.48 323.067,144.48 266.259,65.546 266.244,144.48 215.99,144.48 215.99,36.452 "
   id="polygon27" />
		<path
   d="M 566.545,143.617 V 120.834 H 452.642 c -4.13,0 -7.491,-5.735 -7.491,-12.812 l -0.023,-38.777 c 0,-7.076 3.373,-12.812 7.505,-12.812 H 566.546 V 36.453 H 425.849 c -17.265,0 -31.973,20.552 -31.973,53.58 0,32.682 12.199,53.585 38.888,53.585 h 133.781 z"
   id="path29"
   inkscape:connector-curvature="0" />
	</g>
</g>
</svg>