<svg xmlns="http://www.w3.org/2000/svg" xmlns:xlink="http://www.w3.org/1999/xlink" version="1.1" id="Layer_1" x="0px" y="0px" width="100px" height="100px" viewBox="0 0 100 100" enable-background="new 0 0 100 100" xml:space="preserve">
<path d="M78.28,13.72c-15.62-15.63-40.94-15.63-56.56,0c-15.63,15.62-15.63,40.94,0,56.561L50,98.57l28.28-28.29  C93.91,54.66,93.91,29.34,78.28,13.72z M64.14,56.14C60.52,59.76,55.52,62,50,62c-5.52,0-10.52-2.24-14.14-5.86  C32.24,52.52,30,47.52,30,42c0-11.05,8.95-20,20-20s20,8.95,20,20C70,47.52,67.76,52.52,64.14,56.14z"/>
</svg>