<?xml version="1.0" encoding="utf-8"?>
<!-- Generator: Adobe Illustrator 16.0.0, SVG Export Plug-In . SVG Version: 6.00 Build 0)  -->
<!DOCTYPE svg PUBLIC "-//W3C//DTD SVG 1.1//EN" "http://www.w3.org/Graphics/SVG/1.1/DTD/svg11.dtd">
<svg version="1.1" id="Layer_1" xmlns="http://www.w3.org/2000/svg" xmlns:xlink="http://www.w3.org/1999/xlink" x="0px" y="0px"
	 width="50px" height="50px" viewBox="0 0 50 50" enable-background="new 0 0 50 50" xml:space="preserve">
<path fill="#C7353B" d="M25,0C11.192,0,0,11.193,0,25c0,13.807,11.192,25,25,25c13.807,0,25-11.193,25-25C50,11.193,38.807,0,25,0z
	 M39.009,39.008c-1.159,1.158-3.039,1.16-4.197,0l-9.812-9.811l-9.811,9.811c-1.158,1.158-3.037,1.158-4.197,0
	c-1.158-1.158-1.158-3.039,0-4.197L20.804,25l-9.812-9.811c-1.159-1.159-1.159-3.039,0-4.197c1.159-1.159,3.038-1.159,4.196,0
	L25,20.802l9.811-9.811c1.159-1.159,3.039-1.159,4.198,0c1.158,1.158,1.158,3.038-0.001,4.197L29.197,25l9.812,9.811
	C40.167,35.971,40.167,37.85,39.009,39.008z"/>
</svg>
