<?xml version="1.0" encoding="utf-8"?>
<!-- Generator: Adobe Illustrator 16.0.0, SVG Export Plug-In . SVG Version: 6.00 Build 0)  -->
<!DOCTYPE svg PUBLIC "-//W3C//DTD SVG 1.1//EN" "http://www.w3.org/Graphics/SVG/1.1/DTD/svg11.dtd">
<svg version="1.1" id="Layer_1" xmlns="http://www.w3.org/2000/svg" xmlns:xlink="http://www.w3.org/1999/xlink" x="0px" y="0px"
	 width="50px" height="50px" viewBox="0 0 50 50" enable-background="new 0 0 50 50" xml:space="preserve">
<g>
	<path fill="#006341" d="M41.045,10.015c0.069,0.829,0.055,1.68-0.052,2.544l-0.135,1.09c-0.841,6.815-7.085,12.359-13.92,12.359
		l-8.021,0.003c-0.704,0.028-1.13,0.375-1.265,1.032l-1.709,14.228c-0.098,0.82-0.885,1.463-1.791,1.463h-2.911l-0.769,6.487
		C10.423,49.652,10.795,50,11.306,50h8.971c0.511,0,0.967-0.348,1.019-0.778l1.712-14.257c0.091-0.472,0.472-1.635,2.02-1.688h4.167
		v-0.004h3.869c6.465,0,12.352-5.227,13.147-11.676l0.134-1.09C46.913,15.898,44.715,11.913,41.045,10.015z"/>
	<path fill="#006341" d="M5.183,41.178h8.97c0.132,0,0.226-0.071,0.247-0.105l1.714-14.271l0.005-0.027
		c0.209-1.082,1.042-2.259,2.758-2.318l0.026,0l8.036-0.003c6.075,0,11.626-4.932,12.374-10.994l0.135-1.089
		c0.357-2.897-0.437-5.614-2.238-7.651c-1.796-2.032-4.39-3.152-7.299-3.152l-5.917,0.001c-0.025,0-0.051,0.001-0.076,0.001h-4.722
		l-0.059-0.009c-0.018-0.002-0.032-0.004-0.045-0.004h-9.028c-0.132,0-0.229,0.071-0.251,0.106L5.134,41.174
		C5.147,41.176,5.163,41.178,5.183,41.178z"/>
	<path fill="#FFFFFF" d="M15.943,41.271l1.709-14.228c0.135-0.657,0.561-1.004,1.265-1.032l8.021-0.003
		c6.835,0,13.079-5.544,13.92-12.359l0.135-1.09c0.106-0.865,0.121-1.716,0.052-2.544c-0.2-2.378-1.112-4.566-2.669-6.328
		C36.279,1.316,33.272,0.01,29.91,0.01h-5.875c-0.031,0-0.064,0-0.096,0.002l-4.633,0.001C19.234,0.004,19.163,0,19.092,0h-9.028
		C9.154,0,8.365,0.644,8.269,1.465L3.576,41.087c-0.048,0.407,0.076,0.802,0.352,1.111c0.303,0.341,0.76,0.536,1.255,0.536h6.059
		h2.911C15.059,42.734,15.846,42.092,15.943,41.271z M10.063,1.557h9.028c0.013,0,0.027,0.001,0.045,0.004l0.059,0.009h4.722
		c0.025,0,0.051-0.001,0.076-0.001l5.917-0.001c2.909,0,5.503,1.12,7.299,3.152c1.802,2.037,2.596,4.753,2.238,7.651l-0.135,1.089
		c-0.748,6.062-6.299,10.994-12.374,10.994l-8.036,0.003l-0.026,0c-1.716,0.059-2.549,1.236-2.758,2.318l-0.005,0.027l-1.714,14.271
		c-0.021,0.034-0.115,0.105-0.247,0.105h-8.97c-0.02,0-0.035-0.002-0.049-0.004L9.812,1.663C9.835,1.628,9.932,1.557,10.063,1.557z"
		/>
</g>
</svg>
