<?xml version="1.0" encoding="utf-8"?>
<!-- Generator: Adobe Illustrator 16.0.0, SVG Export Plug-In . SVG Version: 6.00 Build 0)  -->
<!DOCTYPE svg PUBLIC "-//W3C//DTD SVG 1.1//EN" "http://www.w3.org/Graphics/SVG/1.1/DTD/svg11.dtd">
<svg version="1.1" id="Layer_1" xmlns="http://www.w3.org/2000/svg" xmlns:xlink="http://www.w3.org/1999/xlink" x="0px" y="0px"
	 width="50px" height="50px" viewBox="0 0 50 50" enable-background="new 0 0 50 50" xml:space="preserve">
<g>
	<rect x="8.348" y="6.102" fill="#FFFFFF" width="33.393" height="16.956"/>
	<polygon fill="#006341" points="41.74,23.058 41.74,22.623 8.782,22.623 8.782,6.536 41.306,6.536 41.306,23.058 41.74,23.058 
		41.74,22.623 41.74,23.058 42.175,23.058 42.175,5.666 7.913,5.666 7.913,23.492 42.175,23.492 42.175,23.058 	"/>
	<path fill="#006341" d="M50,36.217c0,1.602-1.297,2.898-2.898,2.898H2.898C1.297,39.115,0,37.818,0,36.217V21.145
		c0-1.601,1.297-2.898,2.898-2.898h44.203c1.602,0,2.898,1.298,2.898,2.898V36.217z"/>
	<rect x="8.348" y="34.42" fill="#FFFFFF" width="33.393" height="9.479"/>
	<polygon fill="#006341" points="41.74,43.898 41.74,43.464 8.782,43.464 8.782,34.854 41.306,34.854 41.306,43.898 41.74,43.898 
		41.74,43.464 41.74,43.898 42.175,43.898 42.175,33.985 7.913,33.985 7.913,44.334 42.175,44.334 42.175,43.898 	"/>
	<circle fill="#FFFFFF" cx="5.739" cy="23.116" r="1.826"/>
	<circle fill="#FFFFFF" cx="11.17" cy="23.116" r="1.826"/>
</g>
</svg>
