<?xml version="1.0" encoding="utf-8"?>
<!-- Generator: Adobe Illustrator 16.0.0, SVG Export Plug-In . SVG Version: 6.00 Build 0)  -->
<!DOCTYPE svg PUBLIC "-//W3C//DTD SVG 1.1//EN" "http://www.w3.org/Graphics/SVG/1.1/DTD/svg11.dtd">
<svg version="1.1" id="Layer_1" xmlns="http://www.w3.org/2000/svg" xmlns:xlink="http://www.w3.org/1999/xlink" x="0px" y="0px"
	 width="50px" height="50px" viewBox="0 0 50 50" enable-background="new 0 0 50 50" xml:space="preserve">
<path fill="#006341" d="M25,0C11.193,0,0,11.193,0,25c0,13.809,11.193,25,25,25s25-11.191,25-25C50,11.193,38.807,0,25,0z
	 M40.357,16.185l-16.77,22.319c-0.527,0.705-1.33,1.082-2.146,1.098c-0.814,0.098-1.662-0.174-2.273-0.811L9.85,29.117
	c-1.039-1.078-1.008-2.795,0.07-3.834c1.08-1.038,2.795-1.006,3.834,0.072l7.209,7.484l14.996-19.96
	c0.912-1.215,2.637-1.46,3.852-0.547C41.025,13.245,41.271,14.97,40.357,16.185z"/>
</svg>
