<?xml version="1.0" encoding="utf-8"?><svg xmlns="http://www.w3.org/2000/svg" xmlns:xlink="http://www.w3.org/1999/xlink"><symbol viewBox="26.425 36.452 540.121 145.726" id="GNC"><path d="M67.205 162.502c-26.695 0-38.892-20.903-38.892-53.585 0-33.028 14.708-53.58 31.975-53.58H200.98v19.98H87.065c-4.131 0-7.504 5.736-7.504 12.812l.03 38.777c0 7.075 3.357 12.812 7.488 12.812h57.064c4.129 0 7.49-5.735 7.49-12.812v-7h-38.63v-19.98h88.004l-.028 62.575h-49.555v-6.748c-1.576 4.07-4.262 6.748-7.321 6.748H67.205zM273.043 55.337l58.547 80.228-.014-80.228h49.375v108.028h-55.995l-56.808-78.934-.015 78.934h-50.254V55.337zm295.391 107.165V139.72H454.53c-4.13 0-7.491-5.735-7.491-12.812l-.023-38.777c0-7.076 3.373-12.812 7.505-12.812h113.913v-19.98H427.738c-17.265 0-31.973 20.552-31.973 53.58 0 32.682 12.199 53.585 38.888 53.585h133.78z"/></symbol><symbol viewBox="0 0 100 100" id="arrow-back"><path d="M32.64 35.044L67.363.321l15.108 15.104L47.745 50.15l34.724 34.722-15.106 15.107L17.53 50.15z"/></symbol><symbol viewBox="0 0 100 100" id="arrow-down"><path d="M34.896 67.512L.173 32.788l15.103-15.107 34.726 34.725 34.722-34.723L99.83 32.788 50.002 82.622z"/></symbol><symbol viewBox="0 0 100 100" id="arrow-forward"><path d="M67.36 65.256L32.637 99.979 17.53 84.875l34.725-34.726-34.723-34.722L32.637.321l49.834 49.828z"/></symbol><symbol id="arrow-forward-white" viewBox="0 0 271 416"><defs><style>.ecls-1{fill:#fff;fill-rule:evenodd}</style></defs><path class="ecls-1" d="M-.609 63.629L62.573 0l209.739 208.265-63.183 63.629z"/><path id="eRectangle_1_copy" data-name="Rectangle 1 copy" class="ecls-1" d="M208.666 145.614l62.856 64L60.575 416.8l-62.855-64z"/></symbol><symbol viewBox="0 0 100 100" id="btn-close"><title/><script type="text/javascript">var metadata = { "Designer": "Anas Ramadan", "Organization": "RichStyle.org", "Year": "2012", "Country": "Syria", "License": "CC-BY-3.0" }</script><path d="M15.673 13.623a50 50 0 0 0-1.016 71.727 50 50 0 0 0 70.71-70.71 50 50 0 0 0-69.694-1.017zm9.59 21.523l9.9-9.9 14.85 14.85 14.849-14.85 9.899 9.9L59.911 50l14.85 14.844-9.9 9.9-14.849-14.85-14.849 14.85-9.9-9.9L40.114 50l-14.85-14.854z"/></symbol><symbol id="btn-close-white" viewBox="40.5 40.5 19 19"><title/><script type="text/javascript">var metadata = { "Designer": "Anas Ramadan", "Organization": "RichStyle.org", "Year": "2012", "Country": "Syria", "License": "CC-BY-3.0" }</script><path d="M43.483 43.08c-3.814 3.601-3.987 9.613-.386 13.427a9.498 9.498 0 0 0 13.626.198c3.71-3.709 3.71-9.723 0-13.433a9.499 9.499 0 0 0-13.24-.192zm1.822 4.088l1.881-1.88 2.821 2.821 2.821-2.821 1.881 1.88-2.821 2.822 2.821 2.82-1.881 1.881-2.821-2.82-2.821 2.82-1.881-1.881 2.821-2.82-2.821-2.822z"/></symbol><symbol viewBox="0 0 28.35 28.35" id="carousel"><path stroke-miterlimit="10" d="M14.176 8.039c2.732 0 4.947 2.126 4.947 4.75s-2.215 4.75-4.947 4.75c-2.733 0-4.948-2.127-4.948-4.75s2.214-4.75 4.948-4.75z"/></symbol><symbol viewBox="0 0 28.35 28.35" id="carouselActive"><path stroke-miterlimit="10" d="M14.176 8.039c2.732 0 4.947 2.126 4.947 4.75s-2.215 4.75-4.947 4.75c-2.733 0-4.948-2.127-4.948-4.75s2.214-4.75 4.948-4.75z"/></symbol><symbol viewBox="0 0 9 9" id="deleteCross"><path stroke-width="2" stroke-miterlimit="10" d="M8.258.727L.772 8.226m7.493-.007L.766.733"/></symbol><symbol viewBox="0 0 28.35 28.35" id="facebook"><path d="M11.714 12.448h1.056v-1.026c0-.451.011-1.147.339-1.579.346-.458.82-.768 1.637-.768 1.329 0 1.89.189 1.89.189l-.264 1.562s-.439-.128-.849-.128c-.411 0-.777.147-.777.557v1.192h1.681l-.117 1.526h-1.563v5.299h-1.976v-5.299h-1.056v-1.525h-.001z"/></symbol><symbol viewBox="0 0 28.35 28.35" id="flavour"><circle fill-rule="evenodd" clip-rule="evenodd" cx="14.174" cy="14.212" r="8.272"/><path d="M16.83 13.039c-1.514-1.809-2.718-4.019-2.718-4.019s-1.204 2.21-2.718 4.019c-2.004 2.395-1.827 5.548 2.718 5.548s4.723-3.153 2.718-5.548z"/></symbol><symbol viewBox="0 0 28.35 28.35" id="flavour_active"><circle fill-rule="evenodd" clip-rule="evenodd" cx="14.174" cy="14.212" r="8.272"/><path d="M16.83 13.039c-1.514-1.809-2.718-4.019-2.718-4.019s-1.204 2.21-2.718 4.019c-2.004 2.395-1.827 5.548 2.718 5.548s4.723-3.153 2.718-5.548z"/></symbol><symbol viewBox="0 0 28.35 28.35" id="flavour_hover"><circle fill-rule="evenodd" clip-rule="evenodd" cx="14.174" cy="14.212" r="8.272"/><path d="M16.83 13.039c-1.514-1.809-2.718-4.019-2.718-4.019s-1.204 2.21-2.718 4.019c-2.004 2.395-1.827 5.548 2.718 5.548s4.723-3.153 2.718-5.548z"/></symbol><symbol viewBox="0 0 100 100" id="icon-basket"><path d="M-192 0H-7v99h-185zM0-36h100v30H0z"/><text transform="translate(66 -19.5)" font-family="'Helvetica'" font-size="2.4">http://thenounproject.com</text><text transform="translate(7.166 -24.5)"><tspan x="0" y="0" font-family="'Helvetica-Bold'" font-size="6.158">The Noun Project</tspan><tspan x="1.12" y="4.8" font-family="'Helvetica-Bold'" font-size="4">Icon Template</tspan></text><text transform="translate(-178.5 10.5)" font-family="'Helvetica-Bold'" font-size="6.158">Reminders</text><path stroke-miterlimit="10" d="M8-14.5h10m-197 31h17"/><path d="M-170.802 31.318h8.721v8.642h-8.721z"/><path d="M-164.455 42.312h4.747v-4.703h-4.747v4.703zm5.189.437h-5.63V37.17h5.63v5.579zm-6.955 1.313h8.279v-8.203h-8.279v8.203zm8.721.438h-9.163v-9.079h9.163V44.5z"/><path d="M-166.149 44.133l-.143-.142 8.279-8.204.142.142zM-179 58h35v32.5h-35z"/><text transform="translate(-179 60.157)"><tspan x="0" y="0" font-family="'Helvetica-Bold'" font-size="3">Strokes</tspan><tspan x="0" y="5" font-family="'Helvetica'" font-size="2.4">Try to keep strokes at 4px</tspan><tspan x="0" y="10" font-family="'Helvetica'" font-size="2.4">Minimum stroke weight is 2px</tspan><tspan x="0" y="14.5" font-family="'Helvetica'" font-size="2.4">For thicker strokes use even </tspan><tspan x="0" y="17.5" font-family="'Helvetica'" font-size="2.4">numbers: 6px, 8px etc.</tspan><tspan x="0" y="22" font-family="'Helvetica-Bold'" font-size="2.4">Remember to expand strokes </tspan><tspan x="0" y="25" font-family="'Helvetica-Bold'" font-size="2.4">before saving as an SVG</tspan></text><path d="M-136.5 58h35v32.5h-35z"/><text transform="translate(-136.5 60.157)"><tspan x="0" y="0" font-family="'Helvetica-Bold'" font-size="3">Size</tspan><tspan x="0" y="5" font-family="'Helvetica'" font-size="2.4">Cannot be wider or taller than </tspan><tspan x="0" y="8.5" font-family="'Helvetica'" font-size="2.4">100px (artboard size)</tspan><tspan x="0" y="13.5" font-family="'Helvetica'" font-size="2.4">Scale your icon to fill as much of </tspan><tspan x="0" y="16.5" font-family="'Helvetica'" font-size="2.4">the artboard as possible</tspan></text><path d="M-94 58h35v32.5h-35z"/><text transform="translate(-94 60.157)"><tspan x="0" y="0" font-family="'Helvetica-Bold'" font-size="3">Ungroup</tspan><tspan x="0" y="5" font-family="'Helvetica'" font-size="2.4">If your design has more than one </tspan><tspan x="0" y="8" font-family="'Helvetica'" font-size="2.4">shape, make sure to ungroup</tspan></text><path d="M-50 58h35v32.5h-35z"/><text transform="translate(-50 60.157)"><tspan x="0" y="0" font-family="'Helvetica-Bold'" font-size="3">Save as</tspan><tspan x="0" y="5" font-family="'Helvetica'" font-size="2.4">Save as .SVG and make sure </tspan><tspan x="0" y="8" font-family="'Helvetica'" font-size="2.4">“Use Artboards” is checked</tspan></text><text transform="matrix(1.0074 0 0 1 -125.542 30.593)" font-family="'Helvetica'" font-size="2.573">100px</text><text transform="matrix(1.0074 0 0 1 -41 39)" font-family="'Helvetica-Bold'" font-size="5.146">.SVG</text><path d="M-126.514 34.815h10.261V45h-10.261zm.037-3.049h.522v2.337h-.522zm9.665 0h.523v2.337h-.523z"/><path d="M-127 32.337h11.233v.572H-127zm43.195 1.507H-73.5V44h-10.305zm6.996-5.137h3.308v3.261h-3.308z"/><path stroke-miterlimit="10" d="M-178.5 22.5h30v30h-30zm42 0h30v30h-30zm43 0h30v30h-30zm44 0h30v30h-30z"/><path d="M81.207 69.065a7.41 7.41 0 1 0 .004 14.818 7.41 7.41 0 0 0-.004-14.818zm-56.467 0a7.408 7.408 0 0 0-7.406 7.406c0 4.096 3.315 7.412 7.406 7.412s7.411-3.316 7.411-7.412c0-4.085-3.32-7.406-7.411-7.406zM91.108 26.3a5.29 5.29 0 0 0-4.366-2.307H38.886a5.285 5.285 0 0 0 0 10.567h40.108l-6.813 17.36-35.425 3.86-12.924-37.23A5.283 5.283 0 0 0 18.84 15H8.283C5.366 15 3 17.367 3 20.283s2.366 5.283 5.283 5.283h6.799l13.07 37.654a5.287 5.287 0 0 0 5.564 3.518l42.787-4.658a5.282 5.282 0 0 0 4.348-3.321l10.812-27.55a5.298 5.298 0 0 0-.555-4.909z"/></symbol><symbol viewBox="0 0 100 100" id="icon-click"><path d="M83.729 78.935L64.74 59.946l16.137-6.513-44.129-17.944 17.943 44.129 6.514-16.137L80.193 82.47z"/><path stroke-width="5" stroke-linecap="round" stroke-miterlimit="10" d="M24.397 23.139l-6.647-6.648m2.126 14.478l-9.08-2.434m9.08 11.476l-9.08 2.432m13.601 5.399l-6.648 6.646m14.479-2.126l-2.434 9.08m23.828-30.473l9.079-2.434m-13.6-5.397l6.646-6.648M41.27 18.616l2.432-9.08m-11.474 9.08l-2.434-9.08"/></symbol><symbol viewBox="0 0 100 100" id="icon-email"><path d="M18.75 27.083c-4.167 0-2.083 1.414 0 3.125l29.167 23.959L81.25 30.208c2.083-1.71 4.167-3.125 0-3.125H47.917zm-4.167 6.25V68.75c0 2.083 2.11 4.167 3.776 4.167h63.282c1.666 0 3.776-2.084 3.776-4.167V33.333l-37.5 27.084z" color="#000" stroke-width="2" overflow="visible"/></symbol><symbol viewBox="0 0 100 100" id="icon-package"><path d="M44.471.548a4.503 4.503 0 0 0-2.611.726L1.927 26.88C.66 27.693-.065 29.084.005 30.543L2.29 76.606c.084 1.696 1.226 3.173 2.901 3.735l56.327 18.897c.465.157.938.215 1.414.217a4.434 4.434 0 0 0 3.12-1.269l32.497-31.808c.792-.775 1.228-1.782 1.233-2.866L100 17.667c.009-1.901-1.343-3.58-3.264-4.062L45.378.693a4.479 4.479 0 0 0-.907-.145zm.254 5.55c4.694 1.18 9.378 2.374 14.073 3.554L29.02 33.372c-6.04-1.827-12.052-3.65-18.207-5.476L44.725 6.097zm28.036 7.072c6.29 1.582 12.57 3.17 18.86 4.751L61.519 43.13a3683.026 3683.026 0 0 1-18.28-5.477L72.761 13.17zm21.653 10.373l-.18 39.135L65.76 90.533l-.507-42.58 29.16-24.41zM5.771 32.647l19.985 6.02v14.726l3.373-.036 2.539 1.668 3.917-.435 4.788 2.829-.218-14.435 18.86 5.658.508 43.85-51.648-17.3-2.104-42.545zm81.462 10.445l-2.575 7.762 5.15-4.932-2.575-2.83zm1.378 5.078l-2.756 2.648v10.155l2.756-2.647V48.17zm-7.943 1.27l-2.575 7.76 5.15-4.969-2.575-2.792zm1.342 5.077l-2.72 2.612v10.155l2.72-2.611V54.517zm8.705 3.337L77.15 70.948v2.974l13.565-13.094v-2.974z"/></symbol><symbol viewBox="0 0 100 100" id="icon-pin"><path d="M78.28 13.72c-15.62-15.63-40.94-15.63-56.56 0-15.63 15.62-15.63 40.94 0 56.561L50 98.57l28.28-28.29c15.63-15.62 15.63-40.94 0-56.56zM64.14 56.14A19.938 19.938 0 0 1 50 62c-5.52 0-10.52-2.24-14.14-5.86A19.938 19.938 0 0 1 30 42c0-11.05 8.95-20 20-20s20 8.95 20 20c0 5.52-2.24 10.52-5.86 14.14z"/></symbol><symbol viewBox="0 0 100 100" id="icon-pin-white"><path d="M78.28 13.72c-15.62-15.63-40.94-15.63-56.56 0-15.63 15.62-15.63 40.94 0 56.561L50 98.57l28.28-28.29c15.63-15.62 15.63-40.94 0-56.56zM64.14 56.14A19.938 19.938 0 0 1 50 62c-5.52 0-10.52-2.24-14.14-5.86A19.938 19.938 0 0 1 30 42c0-11.05 8.95-20 20-20s20 8.95 20 20c0 5.52-2.24 10.52-5.86 14.14z"/></symbol></svg>