<?xml version="1.0" standalone="no"?>
<!DOCTYPE svg PUBLIC "-//W3C//DTD SVG 1.1//EN" "http://www.w3.org/Graphics/SVG/1.1/DTD/svg11.dtd" >
<svg xmlns="http://www.w3.org/2000/svg">
<metadata>Generated by IcoMoon</metadata>
<defs>
<font id="icomoon" horiz-adv-x="1024">
<font-face units-per-em="1024" ascent="960" descent="-64" />
<missing-glyph horiz-adv-x="1024" />
<glyph unicode="&#x20;" horiz-adv-x="512" d="" />
<glyph unicode="&#xe900;" glyph-name="account_icon" d="M790.426 699.003c0-144.145-116.852-260.997-260.997-260.997s-260.997 116.852-260.997 260.997c0 144.145 116.852 260.997 260.997 260.997s260.997-116.852 260.997-260.997zM848.998 462.5c0 0-20.746 14.090-78.828 17.428 0 0-28.221-8.294-43.151-22.405s-89.6-68.035-194.99-69.714v-0.389c-104.878 1.966-179.159 55.624-194.068 69.673-14.93 14.090-43.131 22.405-43.131 22.405-58.102-3.297-78.848-17.428-78.848-17.428-97.894-52.285-146.043-188.355-143.544-355.983 2.478-167.629 166.789-168.448 166.789-168.448l293.704-1.638v0.43l292.844 1.659c0 0 164.27 0.819 166.769 168.448 2.499 167.608-45.65 303.677-143.544 355.963z" />
<glyph unicode="&#xe901;" glyph-name="basket_icon" d="M1024 485.54c0-28.283-22.917-51.2-51.2-51.2h-921.6c-28.283 0-51.2 22.917-51.2 51.2v0c0 28.283 22.917 51.2 51.2 51.2h921.6c28.283 0 51.2-22.917 51.2-51.2v0zM50.094 435.528c4.178-0.86 8.499-1.331 12.943-1.331h9.052l58.143-328.52c0 0 5.96-55.542 61.932-55.542 52.244 0 290.161 0 321.72 0v-1.167c0 0 264.315 0 319.304 0 54.968 0 60.805 55.542 60.805 55.542l57.283 329.687h9.073c4.444 0 8.765 0.471 12.923 1.331h-923.177zM240.681 160.297c-16.896-1.044-31.457 11.796-32.522 28.692l-13.292 213.668c-0.922 14.807 8.827 27.812 22.63 31.519h15.913c12.37-3.318 21.791-14.213 22.63-27.73l13.312-213.647c1.085-16.876-11.756-31.437-28.672-32.502zM446.771 190.71c0-16.937-13.722-30.659-30.659-30.659s-30.659 13.722-30.659 30.659v214.057c0 13.926 9.277 25.661 21.975 29.43h17.388c12.698-3.768 21.955-15.503 21.955-29.43v-214.057zM637.727 191.857c0-16.937-13.722-30.659-30.679-30.659-16.916 0-30.638 13.722-30.638 30.659v214.057c0 12.718 7.721 23.593 18.76 28.262h23.798c10.998-4.669 18.76-15.544 18.76-28.262v-214.057zM815.002 187.843c-1.085-16.896-15.606-29.737-32.522-28.692-16.916 1.065-29.757 15.626-28.672 32.522l13.271 213.668c1.085 16.896 15.606 29.737 32.522 28.672 16.916-1.044 29.757-15.606 28.672-32.502l-13.271-213.668zM836.465 847.135c19.681-19.128 24.576-46.080 10.895-60.15l-338.248-347.976c-13.681-14.070-40.755-9.953-60.457 9.196v0c-19.702 19.149-24.576 46.080-10.916 60.15l338.289 347.996c13.66 14.049 40.735 9.933 60.436-9.216v0z" />
<glyph unicode="&#xe902;" glyph-name="card_icon" d="M1024 637.030v100.68c0 29.020-26.563 52.531-59.29 52.531h-905.421c-32.768 0-59.29-23.511-59.29-52.531v-100.68h1024zM0 464.568v-306.258c0-29.041 26.522-52.552 59.29-52.552h905.441c32.727 0 59.29 23.511 59.29 52.552v306.258h-1024.020zM429.957 170.435h-346.767v57.487h346.767v-57.487z" />
<glyph unicode="&#xe903;" glyph-name="heart_icon" d="M-260.731 1124.946h1545.503v-1353.871h-1545.503v1353.871z" />
<glyph unicode="&#xe904;" glyph-name="info_icon" d="M512 960c-282.788 0-512-229.233-512-512 0-282.788 229.212-512 512-512 282.767 0 512 229.212 512 512 0 282.767-229.233 512-512 512zM427.745 724.603c0 15.565 12.616 28.18 28.18 28.18h113.562c15.585 0 28.18-12.616 28.18-28.18v-82.473c0-15.565-12.595-28.18-28.18-28.18h-113.562c-15.565 0-28.18 12.616-28.18 28.18v82.473zM650.895 171.090c0-15.38-12.472-27.853-27.873-27.853h-222.065c-15.401 0-27.873 12.472-27.873 27.853v54.825c0 15.401 12.472 27.873 27.873 27.873h32.993v167.24h-32.051c-15.401 0-27.873 12.472-27.873 27.873v52.961c0 15.401 12.472 27.873 27.873 27.873h166.339c4.342 0 8.417-1.024 12.083-2.806 9.605-4.506 16.241-14.029 16.241-25.088v-248.074h26.481c15.401 0 27.873-12.472 27.873-27.853v-54.825h-0.020z" />
<glyph unicode="&#xe905;" glyph-name="oos_icon" d="M512 960c-282.788 0-512-229.233-512-512s229.212-512 512-512c282.767 0 512 229.233 512 512s-229.233 512-512 512zM798.904 161.116c-23.736-23.716-62.239-23.757-85.955 0l-200.95 200.929-200.929-200.929c-23.716-23.716-62.198-23.716-85.955 0-23.716 23.716-23.716 62.239 0 85.955l200.95 200.929-200.95 200.929c-23.736 23.736-23.736 62.239 0 85.955 23.736 23.736 62.218 23.736 85.934 0l200.95-200.909 200.929 200.929c23.736 23.736 62.239 23.736 85.975 0 23.716-23.716 23.716-62.218-0.020-85.955l-200.929-200.95 200.95-200.929c23.716-23.757 23.716-62.239 0-85.955z" />
<glyph unicode="&#xe906;" d="M840.602 754.893c1.413-16.978 1.126-34.406-1.065-52.101l-2.765-22.323c-17.224-139.571-145.101-253.112-285.082-253.112l-164.27-0.061c-14.418-0.573-23.142-7.68-25.907-21.135l-35-291.389c-2.007-16.794-18.125-29.962-36.68-29.962h-59.617l-15.749-132.854c-1.004-8.827 6.615-15.954 17.080-15.954h183.726c10.465 0 19.804 7.127 20.869 15.933l35.062 291.983c1.864 9.667 9.667 33.485 41.37 34.57l164.577 0.082c132.403 0 252.969 107.049 269.251 239.124l2.744 22.323c11.633 94.392-33.382 176.005-108.544 214.876z" />
<glyph unicode="&#xe907;" d="M106.148 116.675h183.706c2.703 0 4.628 1.454 5.059 2.15l35.103 292.27 0.102 0.553c4.28 22.159 21.34 46.264 56.484 47.473l165.11 0.061c124.416 0 238.1 101.007 253.42 225.157l2.765 22.303c7.311 59.331-8.95 114.975-45.834 156.692-36.782 41.615-89.907 64.553-149.484 64.553l-121.18-0.020c-0.512 0-1.044-0.020-1.556-0.020h-96.707l-1.208 0.184c-0.369 0.041-0.655 0.082-0.922 0.082h-184.893c-2.703 0-4.69-1.454-5.14-2.171l-95.826-809.185c0.266-0.041 0.594-0.082 1.004-0.082z" />
<glyph unicode="&#xe908;" d="M326.513 114.77l35 291.389c2.765 13.455 11.489 20.562 25.907 21.135l164.27 0.061c139.981 0 267.858 113.541 285.082 253.112l2.765 22.323c2.171 17.715 2.478 35.144 1.065 52.101-4.096 48.701-22.774 93.512-54.661 129.597-42.947 48.558-104.53 75.305-173.384 75.305h-120.32c-0.635 0-1.311 0-1.966-0.041l-94.884-0.020c-1.475 0.184-2.929 0.266-4.383 0.266h-184.893c-18.637 0-34.796-13.189-36.762-30.003l-96.113-811.459c-0.983-8.335 1.556-16.425 7.209-22.753 6.205-6.984 15.565-10.977 25.702-10.977h183.706c18.555 0 34.673 13.148 36.659 29.962zM206.090 928.113h184.893c0.266 0 0.553-0.020 0.922-0.082l1.208-0.184h96.707c0.512 0 1.044 0.020 1.556 0.020l121.18 0.020c59.576 0 112.701-22.938 149.484-64.553 36.905-41.718 53.166-97.341 45.834-156.692l-2.765-22.303c-15.319-124.15-129.004-225.157-253.42-225.157l-165.11-0.061c-35.144-1.208-52.204-25.313-56.484-47.473l-0.102-0.553-35.103-292.27c-0.43-0.696-2.355-2.15-5.059-2.15h-183.706c-0.41 0-0.717 0.041-1.004 0.082l95.826 809.185c0.471 0.717 2.458 2.171 5.14 2.171z" />
<glyph unicode="&#xe909;" glyph-name="phone_icon" d="M995.389 54.231l12.308 22.897c29.082 54.19 18.248 116.613-24.207 139.387l-147.845 79.176c-34.632 18.575-82.412-3.092-106.742-48.415l-29.942-55.808-0.020 0.041c0 0-0.082-0.184-0.205-0.43 0 0-4.035-7.557-4.26-8.008-7.475-12.431-24.084-33.239-47.636-24.166-35.594 6.738-130.068 71.782-231.834 161.567-108.052 95.314-187.392 185.938-190.546 215.654-4.895 17.695 8.233 32.768 18.35 41.329l58.040 41.226c41.923 29.778 57.467 79.892 34.693 111.944l-86.548 121.856c-0.266 0.389-0.532 0.737-0.819 1.085l-11.53 16.261c-27.894 39.26-91.177 42.23-141.312 6.615l-21.217-15.053c-15.749-11.203-28.365-24.904-37.335-39.629l-0.348 0.307c-30.372-51.937-42.291-114.483-33.731-180.654 5.489-42.598 19.558-85.053 40.796-124.969 5.243-10.281 26.010-42.516 28.979-46.653 48.66-68.69 136.684-162.939 244.879-258.417 144.548-127.488 282.419-219.525 350.454-237.998 37.704-12.698 76.431-19.517 114.442-19.64 64.43-0.205 123.126 18.145 170.086 52.388 16.876 11.203 32.031 27.587 43.049 48.108z" />
<glyph unicode="&#xe90a;" glyph-name="pin_icon" d="M870.318 622.141c0 186.614-151.265 337.859-337.838 337.859s-337.838-151.245-337.838-337.859c0-42.23 7.782-82.678 21.934-119.951 0 0 204.718-443.556 234.803-508.396 26.378-56.75 67.564-57.876 77.353-57.283 1.208-0.123 2.437-0.205 3.727-0.205 0.471 0 0.942 0 1.393 0.041v-0.041c0 0 49.398-7.721 79.503 57.078 30.085 64.84 235.356 508.58 235.356 508.58l-0.471-0.164c14.254 37.396 22.077 77.967 22.077 120.34zM532.787 446.239c-95.048 0-172.052 77.025-172.052 172.032 0 95.048 77.025 172.052 172.052 172.052s172.052-77.025 172.052-172.052c0-95.027-77.046-172.032-172.052-172.032z" />
<glyph unicode="&#xe90b;" d="M170.967 835.031h683.889v-347.259h-683.889v347.259z" />
<glyph unicode="&#xe90c;" d="M854.835 487.772v8.909h-674.98v329.462h666.092v-338.371h17.797v356.188h-701.686v-365.076h701.686v8.888z" />
<glyph unicode="&#xe90d;" d="M1024 218.276c0-32.809-26.563-59.351-59.351-59.351h-905.298c-32.788 0-59.351 26.563-59.351 59.351v308.675c0 32.788 26.563 59.351 59.351 59.351h905.277c32.809 0 59.351-26.583 59.351-59.351v-308.675z" />
<glyph unicode="&#xe90e;" d="M170.967 255.078h683.889v-194.13h-683.889v194.13z" />
<glyph unicode="&#xe90f;" d="M854.835 60.969v8.888h-674.98v176.333h666.092v-185.221h17.797v203.018h-701.686v-211.948h701.686v8.929z" />
<glyph unicode="&#xe910;" d="M154.931 486.584c0-20.654-16.743-37.396-37.396-37.396s-37.396 16.743-37.396 37.396c0 20.654 16.743 37.396 37.396 37.396s37.396-16.743 37.396-37.396z" />
<glyph unicode="&#xe911;" d="M266.158 486.584c0-20.654-16.743-37.396-37.396-37.396s-37.396 16.743-37.396 37.396c0 20.654 16.743 37.396 37.396 37.396s37.396-16.743 37.396-37.396z" />
<glyph unicode="&#xe912;" glyph-name="search_icon" d="M1009.5 54.415l-223.805 231.014c47.964 69.407 76.042 153.559 76.042 244.326 0 237.609-192.635 430.244-430.264 430.244s-430.244-192.635-430.244-430.244c0-237.65 192.614-430.264 430.244-430.264 92.918 0 178.954 29.45 249.262 79.524l221.43-228.598c22.077-22.794 64.041-18.043 93.676 10.67 29.635 28.733 35.758 70.492 13.66 93.327zM431.022 255.918c-153.518 0-277.955 124.436-277.955 277.955s124.436 278.016 277.955 278.016c153.539 0 277.996-124.477 277.996-277.996s-124.457-277.975-277.996-277.975z" />
<glyph unicode="&#xe913;" glyph-name="speech_icon" d="M513.966 916.46c-281.661 0-509.993-171.049-509.993-382.054 0-125.112 80.282-236.196 204.349-305.869-49.848-78.868-122.839-140.616-208.323-176.783 32.358-14.275 67.318-24.125 104.284-28.57 130.13-15.708 252.539 38.871 329.236 133.837 26.214-3.092 53.084-4.71 80.466-4.71 281.661 0 510.013 171.069 510.013 382.075s-228.352 382.075-510.034 382.075z" />
<glyph unicode="&#xe914;" glyph-name="tick_icon" d="M512 960c-282.767 0-512-229.233-512-512 0-282.808 229.233-512 512-512s512 229.192 512 512c0 282.767-229.233 512-512 512zM826.511 628.531l-343.45-457.093c-10.793-14.438-27.238-22.159-43.95-22.487-16.671-2.007-34.038 3.564-46.551 16.609l-190.833 198.124c-21.279 22.077-20.644 57.242 1.434 78.52 22.118 21.258 57.242 20.603 78.52-1.475l147.64-153.272 307.118 408.781c18.678 24.883 54.006 29.901 78.889 11.203 24.863-18.698 29.901-54.026 11.182-78.909z" />
</font>
</defs>
</svg>
